<svg width="18" height="21" viewBox="0 0 18 21" fill="none" xmlns="http://www.w3.org/2000/svg">
<path d="M3.89826 9.43536L2.48373 4.90988C2.4239 4.64484 2.27612 4.41469 2.06999 4.2655C1.86385 4.11632 1.61458 4.05912 1.37209 4.10535C1.24774 4.1348 1.13006 4.19198 1.02621 4.27343C0.922349 4.35489 0.83447 4.45892 0.767898 4.57922C0.701326 4.69953 0.657448 4.83359 0.638924 4.97329C0.620401 5.11298 0.627618 5.2554 0.660138 5.39191L2.11526 10.3821L3.89826 9.43536ZM14.0717 9.43536L15.4862 4.90988C15.546 4.64484 15.6938 4.41469 15.8999 4.2655C16.1061 4.11632 16.3553 4.05912 16.5978 4.10535C16.7222 4.1348 16.8399 4.19198 16.9437 4.27343C17.0476 4.35489 17.1355 4.45892 17.202 4.57922C17.2686 4.69953 17.3125 4.83359 17.331 4.97329C17.3495 5.11298 17.3423 5.2554 17.3098 5.39191L15.8547 10.3821L14.0717 9.43536Z" fill="#FFAC96"/>
<path d="M6.80912 11.3119L4.04875 9.51484C3.85774 9.39233 3.63387 9.34876 3.41673 9.39185C3.19959 9.43494 3.00316 9.56191 2.86217 9.75031L1.85482 6.29672C1.79499 6.03168 1.64721 5.80153 1.44108 5.65234C1.23495 5.50316 0.985675 5.44596 0.743182 5.49219C0.61883 5.52164 0.501158 5.57882 0.3973 5.66027C0.293442 5.74173 0.205563 5.84576 0.138991 5.96607C0.0724193 6.08637 0.0285414 6.22043 0.0100179 6.36013C-0.00850552 6.49982 -0.00128854 6.64224 0.0312314 6.77875L1.38956 12.407C1.45187 12.6702 1.58341 12.9069 1.76739 13.0867L3.87826 15.1708C4.00996 15.3011 4.11534 15.4608 4.18746 15.6395C4.25958 15.8182 4.2968 16.0119 4.29669 16.2077V17.3174H8.04379V13.7053C8.04383 13.2214 7.92989 12.746 7.7133 12.3261C7.49671 11.9062 7.18501 11.5566 6.80912 11.3119ZM17.218 5.49219C16.9755 5.44596 16.7262 5.50316 16.5201 5.65234C16.3139 5.80153 16.1662 6.03168 16.1063 6.29672L15.0977 9.75031C14.9567 9.56191 14.7603 9.43494 14.5432 9.39185C14.326 9.34876 14.1022 9.39233 13.9111 9.51484L11.1508 11.3119C10.7751 11.5568 10.4637 11.9065 10.2473 12.3263C10.0309 12.7462 9.91719 13.2216 9.91735 13.7053V17.3174H13.6645V16.2077C13.6643 16.0119 13.7016 15.8182 13.7737 15.6395C13.8458 15.4608 13.9512 15.3011 14.0829 15.1708L16.1938 13.0867C16.3777 12.9069 16.5093 12.6702 16.5716 12.407L17.9299 6.77875C17.9624 6.64224 17.9696 6.49982 17.9511 6.36013C17.9326 6.22043 17.8887 6.08637 17.8222 5.96607C17.7556 5.84576 17.6677 5.74173 17.5638 5.66027C17.46 5.57882 17.3423 5.52164 17.218 5.49219Z" fill="#FFBCAB"/>
<path d="M9.60894 17.3167V20.0909H13.9806V17.3167H9.9212H9.60894ZM8.35991 17.3167H3.98828V20.0909H8.35991V17.3167Z" fill="#006DF0"/>
<path d="M13.1768 5.37384L12.9551 5.62005L8.98009 10.0346L5.00503 5.62005L4.78333 5.37384C4.51328 5.08629 4.29764 4.74175 4.14907 4.36044C4.0005 3.97912 3.92198 3.56869 3.91812 3.15323C3.91426 2.73776 3.98513 2.32563 4.12659 1.94098C4.26804 1.55634 4.47723 1.20694 4.74188 0.913259C5.00653 0.619582 5.32131 0.387545 5.66778 0.230755C6.01424 0.0739649 6.38541 -0.00442153 6.75951 0.000192468C7.13361 0.00480647 7.50312 0.092328 7.84636 0.257624C8.1896 0.422921 8.49967 0.662665 8.75838 0.962797L8.98009 1.20901L9.20179 0.962797C9.4605 0.662665 9.77057 0.422921 10.1138 0.257624C10.4571 0.092328 10.8266 0.00480647 11.2007 0.000192468C11.5748 -0.00442153 11.9459 0.0739649 12.2924 0.230755C12.6389 0.387545 12.9536 0.619582 13.2183 0.913259C13.4829 1.20694 13.6921 1.55634 13.8336 1.94098C13.975 2.32563 14.0459 2.73776 14.0421 3.15323C14.0382 3.56869 13.9597 3.97912 13.8111 4.36044C13.6625 4.74175 13.4469 5.08629 13.1768 5.37384Z" fill="#D80027"/>
<path d="M13.177 0.962184C12.8799 0.628746 12.5183 0.374898 12.1196 0.219928C11.721 0.0649585 11.2957 0.0129441 10.8763 0.0678377C11.4022 0.132565 11.9009 0.360967 12.315 0.726732C12.7292 1.0925 13.0418 1.58074 13.217 2.13523C13.3922 2.68971 13.4227 3.28787 13.3052 3.8608C13.1876 4.43374 12.9267 4.95813 12.5525 5.37357L12.3308 5.61979L8.66797 9.68717L8.98023 10.034L12.9553 5.61944L13.177 5.37323C13.7033 4.78803 13.9989 3.99478 13.9989 3.16771C13.9989 2.34063 13.7033 1.54738 13.177 0.962184Z" fill="#BD0022"/>
<path d="M9.60745 6.56578V5.17866H10.8565V3.79154H9.60745V2.40442H8.35841V3.79154H7.10938V5.17866H8.35841V6.56578H9.60745Z" fill="#F1F2F2"/>
<path d="M14.8526 10.6234L12.7654 11.9065C12.7058 11.9448 12.6616 12.007 12.6418 12.0804C12.622 12.1537 12.6281 12.2326 12.659 12.3011C12.6754 12.3377 12.6985 12.3702 12.7267 12.3966C12.7549 12.4229 12.7877 12.4426 12.823 12.4543C12.8583 12.4661 12.8954 12.4697 12.932 12.465C12.9686 12.4602 13.004 12.4472 13.0359 12.4267L14.8526 11.317C15.0423 11.1948 15.1874 11.0027 15.2626 10.774C15.3379 10.5453 15.3385 10.2946 15.2645 10.0654C15.1922 10.3005 15.0459 10.4986 14.8526 10.6234ZM3.11539 10.6234L5.20253 11.9065C5.26218 11.9448 5.30641 12.007 5.3262 12.0804C5.34598 12.1537 5.33984 12.2326 5.30901 12.3011C5.29253 12.3377 5.26948 12.3702 5.24127 12.3966C5.21307 12.4229 5.1803 12.4426 5.14499 12.4543C5.10969 12.4661 5.07259 12.4697 5.03597 12.465C4.99936 12.4602 4.96402 12.4472 4.93212 12.4267L3.11539 11.317C2.92572 11.1948 2.78062 11.0027 2.70536 10.774C2.6301 10.5453 2.62945 10.2946 2.70352 10.0654C2.77577 10.3005 2.92203 10.4986 3.11539 10.6234Z" fill="#FFAC96"/>
</svg>
