<svg width="22" height="21" viewBox="0 0 22 21" fill="none" xmlns="http://www.w3.org/2000/svg">
<path fill-rule="evenodd" clip-rule="evenodd" d="M9.4067 3.0677C6.63382 3.67493 4.44866 5.84836 3.83815 8.60636H0.753906C1.43595 4.18002 4.95648 0.678381 9.4067 0V3.0677Z" fill="#C6EA94"/>
<path fill-rule="evenodd" clip-rule="evenodd" d="M12.5625 0C17.0127 0.678381 20.5333 4.18002 21.2152 8.60636H18.131C17.5205 5.84836 15.3354 3.67493 12.5625 3.0677V0Z" fill="#FDCD56"/>
<path fill-rule="evenodd" clip-rule="evenodd" d="M12.5625 17.2847C15.3354 16.6775 17.5205 14.5041 18.131 11.7461H21.2152C20.5333 16.1724 17.0127 19.6741 12.5625 20.3524V17.2847Z" fill="#C9F4FF"/>
<path fill-rule="evenodd" clip-rule="evenodd" d="M9.4067 20.3524C4.95648 19.6741 1.43595 16.1724 0.753906 11.7461H3.83815C4.44866 14.5041 6.63382 16.6775 9.4067 17.2847V20.3524Z" fill="#F76C82"/>
<path fill-rule="evenodd" clip-rule="evenodd" d="M12.4414 9.19304C12.4414 9.80909 12.9255 10.3083 13.523 10.3083C14.1201 10.3083 14.6042 9.80909 14.6042 9.19304C14.6042 8.57732 14.1201 8.07812 13.523 8.07812C12.9255 8.07812 12.4414 8.57732 12.4414 9.19304Z" fill="white"/>
<path fill-rule="evenodd" clip-rule="evenodd" d="M15.859 13.3629C15.859 14.6953 11.1797 14.6953 11.1797 13.3629C11.1797 12.0306 12.2274 10.9502 13.5196 10.9502C14.8117 10.9502 15.859 12.0306 15.859 13.3629Z" fill="#9EE6FF"/>
<path fill-rule="evenodd" clip-rule="evenodd" d="M7.76172 7.45569C7.76172 8.26548 8.39805 8.92162 9.1834 8.92162C9.96824 8.92162 10.6046 8.26548 10.6046 7.45569C10.6046 6.64638 9.96824 5.99023 9.1834 5.99023C8.39805 5.99023 7.76172 6.64638 7.76172 7.45569Z" fill="white"/>
<path fill-rule="evenodd" clip-rule="evenodd" d="M12.2602 12.9371C12.2602 14.6884 6.10938 14.6884 6.10938 12.9371C6.10938 11.1857 7.48653 9.76562 9.185 9.76562C10.8834 9.76562 12.2602 11.1857 12.2602 12.9371Z" fill="#C9F4FF"/>
</svg>
