<svg width="20" height="20" viewBox="0 0 20 20" fill="none" xmlns="http://www.w3.org/2000/svg">
<path d="M5.86646 1.16211H19.1995C19.4731 1.16211 19.6949 1.38605 19.6949 1.66229V11.6334C19.6949 11.9096 19.4731 12.1335 19.1995 12.1335H5.86646C5.59288 12.1335 5.37109 11.9096 5.37109 11.6334V1.66229C5.37109 1.38605 5.59288 1.16211 5.86646 1.16211Z" fill="#C52828"/>
<path d="M18.6282 1.66232V11.6334C18.6284 11.6991 18.6158 11.7643 18.5911 11.825C18.5664 11.8858 18.53 11.941 18.4842 11.9875C18.4383 12.034 18.3838 12.0708 18.3239 12.0959C18.2639 12.1209 18.1996 12.1337 18.1348 12.1335H5.86461C5.83465 12.1335 5.80477 12.1303 5.77548 12.1239C5.74708 12.1198 5.71928 12.1122 5.69269 12.1013C5.5986 12.0655 5.51745 12.0017 5.46002 11.9181C5.40258 11.8345 5.37158 11.7352 5.37112 11.6334V1.66232C5.36992 1.54064 5.41429 1.42302 5.49528 1.33318C5.54294 1.27693 5.60289 1.23274 5.67038 1.20412C5.69763 1.1906 5.72654 1.18083 5.75634 1.17508C5.79167 1.16583 5.82808 1.16149 5.86457 1.16218H18.1347C18.1996 1.16197 18.2639 1.17476 18.3238 1.19982C18.3838 1.22488 18.4383 1.26172 18.4841 1.3082C18.53 1.35468 18.5664 1.4099 18.5911 1.47068C18.6158 1.53145 18.6284 1.59658 18.6282 1.66232Z" fill="#F44335"/>
<path d="M18.6282 1.65712V2.09141L13.9714 6.04479L12.9269 6.93255C12.6495 7.16244 12.2465 7.16244 11.9692 6.93255L10.9247 6.04479L5.37109 1.3314C5.4192 1.27574 5.47972 1.232 5.54784 1.20368C5.57535 1.1903 5.60453 1.18064 5.63462 1.17494C5.67029 1.16579 5.70704 1.16149 5.74388 1.16218H18.1301C18.1956 1.16197 18.2604 1.17463 18.321 1.19943C18.3815 1.22423 18.4365 1.26068 18.4828 1.30668C18.5291 1.35268 18.5658 1.40733 18.5907 1.46747C18.6157 1.52761 18.6284 1.59207 18.6282 1.65712Z" fill="#FF5722"/>
<path d="M19.5433 12.0094C19.4519 12.0891 19.3355 12.133 19.2152 12.1331H18.1719C18.2387 12.1333 18.3049 12.1201 18.3667 12.0941C18.4285 12.0681 18.4847 12.03 18.532 11.9818C18.5792 11.9336 18.6167 11.8764 18.6422 11.8134C18.6676 11.7504 18.6806 11.6829 18.6804 11.6148V11.0664L19.5433 12.0094Z" fill="#D84315"/>
<path d="M18.6282 11.0941V11.6284C18.6284 11.6948 18.6158 11.7605 18.591 11.8219C18.5662 11.8832 18.5298 11.939 18.4839 11.9859C18.4379 12.0328 18.3834 12.07 18.3233 12.0953C18.2632 12.1206 18.1989 12.1335 18.1339 12.1333H5.84235C5.81234 12.1333 5.78241 12.13 5.75307 12.1235C5.72462 12.1194 5.69677 12.1118 5.67013 12.1008C5.61651 12.0806 5.56683 12.0508 5.52344 12.0128L10.9835 6.03809L12.02 6.94376C12.2952 7.17828 12.6952 7.17828 12.9704 6.94376L14.0069 6.03809L18.6282 11.0941Z" fill="#FF5722"/>
<path d="M15.4914 16.7258L14.7302 17.9914C14.5823 18.2412 14.3676 18.4448 14.1103 18.5792C14.019 18.6295 13.9219 18.6683 13.8212 18.6948C12.5556 19.0417 9.76753 19.1124 5.29958 14.6444C0.831627 10.1765 0.902242 7.38838 1.24914 6.12284C1.27511 6.0234 1.31285 5.92743 1.36158 5.83695C1.49701 5.57846 1.70163 5.36272 1.95259 5.2138L3.21813 4.45254C3.5077 4.27849 3.88299 4.36344 4.06931 4.64526L5.16784 6.29305L6.08971 7.67746C6.27506 7.95157 6.21603 8.32241 5.9548 8.52544L5.5051 8.87555L4.81773 9.40874C4.71456 9.48967 4.63931 9.60086 4.60254 9.72673C4.577 9.80658 4.5681 9.89081 4.57639 9.97423C4.58468 10.0576 4.60997 10.1385 4.65072 10.2117C4.98479 10.8092 5.29954 11.5158 6.86384 13.0801C8.42814 14.6444 9.13478 14.9592 9.73223 15.2932C9.86455 15.3634 10.0172 15.3851 10.1639 15.3546C10.3105 15.3241 10.4418 15.2433 10.5352 15.1262L11.0684 14.4389L11.4185 13.9892C11.6216 13.7279 11.9924 13.6689 12.2665 13.8543L13.6959 14.805L15.2987 15.8747C15.5805 16.061 15.6655 16.4363 15.4914 16.7258Z" fill="#FDD834"/>
<path d="M14.7301 17.3877L14.0219 18.5779C13.9313 18.6284 13.8349 18.6674 13.7348 18.6941C12.4778 19.0424 9.70869 19.1134 5.27109 14.6265C0.833487 10.1396 0.903623 7.33963 1.24817 6.06871C1.27396 5.96886 1.31145 5.87248 1.35984 5.78161L2.54022 5.0623C2.82782 4.88751 3.20056 4.97282 3.38562 5.25584L4.47668 6.91062L5.39229 8.29766C5.44431 8.3752 5.47872 8.46342 5.49306 8.55599C5.50741 8.64856 5.50132 8.74319 5.47525 8.83311C5.43626 8.95915 5.36066 9.07042 5.2583 9.15245L4.57878 9.68791L4.12896 10.0395C4.01083 10.1319 3.9292 10.2639 3.89879 10.4117C3.86838 10.5596 3.89118 10.7135 3.96308 10.8459C4.29487 11.4459 4.60749 12.1555 6.16117 13.7265C7.7148 15.2974 8.41668 15.6135 9.01007 15.949C9.14097 16.0217 9.29324 16.0447 9.43945 16.0139C9.58567 15.9832 9.71622 15.9007 9.80761 15.7813L10.1553 15.3264L10.6849 14.6394C10.766 14.5359 10.8761 14.4594 11.0007 14.42C11.0897 14.3936 11.1833 14.3875 11.2748 14.402C11.3664 14.4165 11.4536 14.4513 11.5303 14.5039L12.9468 15.4587L14.5387 16.5329C14.8186 16.72 14.903 17.0969 14.7301 17.3877Z" fill="#FFEB3A"/>
<path d="M19.1846 0.857422H5.77327C5.32271 0.857948 4.9576 1.224 4.95707 1.67572V5.3844L4.34379 4.46212C4.06307 4.03759 3.49852 3.91022 3.06349 4.17331L1.80175 4.93384C1.38856 5.17692 1.08544 5.57111 0.956103 6.03359C0.495826 7.71385 0.837349 10.6087 5.07553 14.8584C8.44593 18.234 10.9589 19.1431 12.6908 19.1431C13.0918 19.1449 13.4912 19.0927 13.8783 18.9878C14.3394 18.8581 14.7326 18.5547 14.9755 18.1409L15.7332 16.8746C15.9945 16.4388 15.8676 15.874 15.4451 15.5926L12.4239 13.5735C12.0094 13.2987 11.4539 13.389 11.1474 13.7811L10.2678 14.9149C10.2233 14.9735 10.1593 15.0142 10.0873 15.0295C10.0154 15.0447 9.94039 15.0336 9.87601 14.998L9.7086 14.9055C9.15774 14.6045 8.47214 14.2297 7.08749 12.8415C6.94802 12.7016 6.81037 12.5598 6.67459 12.4163H19.1846C19.634 12.4167 19.999 12.0524 20.0008 11.6018V1.67572C20.0003 1.224 19.6351 0.857948 19.1846 0.857422ZM9.4023 15.4691L9.5649 15.5586C9.97364 15.7878 10.4882 15.6814 10.7732 15.309L11.6528 14.1752C11.701 14.1136 11.7706 14.0725 11.8476 14.0599C11.9247 14.0474 12.0037 14.0644 12.0689 14.1075L15.0901 16.1266C15.1562 16.1708 15.2028 16.2387 15.2202 16.3164C15.2377 16.3941 15.2247 16.4755 15.1839 16.5438L14.4263 17.8101C14.268 18.0821 14.011 18.2822 13.709 18.3685C12.196 18.7856 9.54795 18.4326 5.52901 14.4031C1.51008 10.3735 1.15933 7.71896 1.57444 6.20334C1.66044 5.90059 1.85988 5.6429 2.13104 5.4842L3.3941 4.7243C3.46224 4.68348 3.54343 4.67048 3.62087 4.68798C3.69832 4.70547 3.76609 4.75214 3.81019 4.81832L5.82507 7.84731C5.86817 7.91263 5.88515 7.99182 5.87263 8.06913C5.86011 8.14643 5.81902 8.21618 5.75752 8.26447L4.62635 9.14662C4.2549 9.43231 4.14882 9.94804 4.37733 10.3577L4.46694 10.5207C4.787 11.1093 5.18487 11.8416 6.63516 13.2952C8.08546 14.7489 8.81562 15.1482 9.4023 15.4691ZM19.3606 11.6019C19.3601 11.6482 19.3413 11.6925 19.3083 11.725C19.2753 11.7574 19.2309 11.7755 19.1846 11.7752H6.09717C5.68146 11.2985 5.32297 10.7747 5.02905 10.2143L4.93685 10.0458C4.90129 9.98142 4.89007 9.90632 4.90524 9.8343C4.92041 9.76228 4.96095 9.69815 5.01945 9.65366L6.15062 8.77151C6.54184 8.46427 6.63198 7.90725 6.35771 7.49175L5.59721 6.3474V1.67572C5.59695 1.65247 5.60133 1.62941 5.61008 1.60788C5.61884 1.58635 5.6318 1.5668 5.64819 1.55036C5.66459 1.53392 5.6841 1.52093 5.70557 1.51215C5.72704 1.50337 5.75005 1.49898 5.77324 1.49924H19.1846C19.2078 1.49898 19.2308 1.50337 19.2522 1.51215C19.2737 1.52093 19.2932 1.53392 19.3096 1.55036C19.326 1.5668 19.339 1.58635 19.3477 1.60788C19.3565 1.62941 19.3609 1.65247 19.3606 1.67572V11.6019H19.3606Z" fill="black"/>
<path d="M18.566 2.35692C18.5142 2.28839 18.4375 2.24334 18.3527 2.23165C18.268 2.21996 18.182 2.24258 18.1138 2.29456L12.7157 6.41192C12.6413 6.46632 12.5516 6.49562 12.4596 6.49562C12.3676 6.49562 12.2779 6.46632 12.2035 6.41192L6.80738 2.29456C6.77358 2.26877 6.73505 2.24994 6.69401 2.23912C6.65297 2.22831 6.61021 2.22573 6.56818 2.23154C6.52614 2.23735 6.48566 2.25143 6.44904 2.27297C6.41241 2.29452 6.38037 2.32311 6.35473 2.35711C6.32909 2.3911 6.31036 2.42985 6.29961 2.47113C6.28886 2.51241 6.28629 2.55541 6.29207 2.59769C6.29784 2.63996 6.31184 2.68068 6.33326 2.71751C6.35469 2.75434 6.38311 2.78657 6.41692 2.81235L11.8137 6.92937C12.0007 7.06833 12.2271 7.14333 12.4597 7.14333C12.6922 7.14333 12.9186 7.06833 13.1056 6.92937L18.504 2.81235C18.5379 2.78657 18.5663 2.75433 18.5877 2.71747C18.6092 2.68062 18.6232 2.63987 18.6289 2.59757C18.6347 2.55526 18.6321 2.51223 18.6213 2.47094C18.6105 2.42965 18.5917 2.3909 18.566 2.35692ZM9.70325 6.95666L6.39459 10.5202C6.33741 10.5834 6.30731 10.6668 6.31081 10.7521C6.31431 10.8375 6.35113 10.9181 6.41328 10.9764C6.47544 11.0347 6.55793 11.066 6.64288 11.0635C6.72782 11.0611 6.80839 11.0251 6.86711 10.9633L10.1758 7.39816C10.2282 7.33424 10.2543 7.25261 10.2488 7.16995C10.2434 7.08729 10.2067 7.00985 10.1464 6.95347C10.086 6.89709 10.0065 6.86601 9.92418 6.86661C9.84181 6.8672 9.76278 6.89941 9.70325 6.95666ZM15.2373 6.95666C15.1157 6.82544 14.9113 6.81821 14.7808 6.9406C14.6503 7.06298 14.6431 7.26851 14.7648 7.39976L18.0725 10.9633C18.1942 11.0945 18.3986 11.1017 18.5291 10.9793C18.6596 10.857 18.6667 10.6514 18.545 10.5202L15.2373 6.95666Z" fill="black"/>
</svg>
