<svg width="13" height="22" viewBox="0 0 13 22" fill="none" xmlns="http://www.w3.org/2000/svg">
<path fill-rule="evenodd" clip-rule="evenodd" d="M6.12913 0.714865L6.50042 0L6.87171 0.714865C6.87171 0.714865 9.865 6.47825 11.6611 10.9492C12.4486 12.9095 13 14.6294 13 15.5359C13 18.6779 10.0876 21.2288 6.50042 21.2288C2.91321 21.2288 0.000839233 18.6779 0.000839233 15.5359C0.000839233 14.6294 0.552269 12.9095 1.33979 10.9492C3.13584 6.47825 6.12913 0.714865 6.12913 0.714865Z" fill="#2C2C2C"/>
<path fill-rule="evenodd" clip-rule="evenodd" d="M6.49988 1.73535C5.64642 3.41492 3.5107 7.69644 2.10885 11.1861C1.36122 13.0471 0.816157 14.6751 0.816157 15.5356C0.816157 18.2832 3.36297 20.5139 6.49988 20.5139C9.63683 20.5139 12.1836 18.2832 12.1836 15.5356C12.1836 14.6751 11.6385 13.0471 10.891 11.1861C9.48905 7.69648 7.35338 3.41496 6.49988 1.73535Z" fill="#EC614A"/>
<path fill-rule="evenodd" clip-rule="evenodd" d="M6.49988 1.73535C6.54706 3.47739 6.49988 20.5139 6.49988 20.5139C9.63683 20.5139 12.1836 18.2832 12.1836 15.5356C12.1836 14.6751 11.6385 13.0471 10.891 11.1861C9.48905 7.69648 7.35338 3.41496 6.49988 1.73535Z" fill="#FF6A52"/>
<path fill-rule="evenodd" clip-rule="evenodd" d="M6.13891 14.4318V12.9072H6.95477V14.4318H8.69531V15.1464H6.95477V16.6709H6.13891V15.1464H4.39837V14.4318H6.13891Z" fill="white"/>
</svg>
