<svg width="22" height="22" viewBox="0 0 22 22" fill="none" xmlns="http://www.w3.org/2000/svg">
<path d="M20.0812 10.9993L20.9589 8.71011C21.0552 8.45757 20.9801 8.17126 20.7689 7.99998L18.866 6.45721L18.4809 4.03552C18.4384 3.76798 18.2284 3.55919 17.9608 3.51668L15.5392 3.13161L13.9976 1.22752C13.8276 1.01623 13.5351 0.941219 13.2888 1.03749L10.9983 1.91639L8.70919 1.03874C8.45539 0.941219 8.17159 1.01873 8.00031 1.22877L6.45753 3.13286L4.03585 3.51793C3.90579 3.53887 3.78565 3.60028 3.69251 3.69343C3.59936 3.78658 3.53795 3.90672 3.51701 4.03677L3.13194 6.45846L1.22785 8.00123C1.01781 8.17126 0.941544 8.45757 1.03781 8.71011L1.91547 10.9993L1.03781 13.2884C0.940294 13.541 1.01781 13.8273 1.22785 13.9973L3.13194 15.5388L3.51701 17.9605C3.55951 18.2281 3.7683 18.4381 4.03585 18.4806L6.45753 18.8657L8.00031 20.7685C8.08314 20.8715 8.19662 20.9455 8.3243 20.9796C8.45199 21.0138 8.58723 21.0064 8.71044 20.9586L10.9983 20.0821L13.2875 20.9598C13.359 20.9871 13.4348 21.0011 13.5113 21.0011C13.6951 21.0011 13.8764 20.9198 13.9976 20.7685L15.5392 18.8657L17.9608 18.4806C18.0913 18.4599 18.2119 18.3984 18.3053 18.305C18.3987 18.2115 18.4602 18.091 18.4809 17.9605L18.866 15.5388L20.7689 13.9973C20.9801 13.826 21.0552 13.541 20.9589 13.2884L20.0812 10.9993Z" fill="#F44336" stroke="black" stroke-width="0.5"/>
<path d="M9.12534 9.74844C8.0914 9.74844 7.25 8.90704 7.25 7.8731C7.25 6.83916 8.0914 5.99776 9.12534 5.99776C10.1593 5.99776 11.0007 6.83916 11.0007 7.8731C11.0007 8.90704 10.1593 9.74844 9.12534 9.74844ZM9.12534 7.24799C8.78027 7.24799 8.50022 7.52804 8.50022 7.8731C8.50022 8.21816 8.78027 8.49821 9.12534 8.49821C9.4704 8.49821 9.75045 8.21816 9.75045 7.8731C9.75045 7.52804 9.4704 7.24799 9.12534 7.24799ZM12.876 15.9996C11.8421 15.9996 11.0007 15.1582 11.0007 14.1242C11.0007 13.0903 11.8421 12.2489 12.876 12.2489C13.9099 12.2489 14.7513 13.0903 14.7513 14.1242C14.7513 15.1582 13.9099 15.9996 12.876 15.9996ZM12.876 13.4991C12.5322 13.4991 12.2509 13.7804 12.2509 14.1242C12.2509 14.468 12.5322 14.7493 12.876 14.7493C13.2198 14.7493 13.5011 14.468 13.5011 14.1242C13.5011 13.7804 13.2198 13.4991 12.876 13.4991ZM7.87511 15.9996C7.74884 15.9996 7.62257 15.962 7.51255 15.8833C7.23125 15.682 7.16623 15.2919 7.36752 15.0106L13.6186 6.25906C13.8199 5.97776 14.21 5.91275 14.4913 6.11403C14.7726 6.31407 14.8364 6.70539 14.6363 6.98544L8.3852 15.737C8.26143 15.9083 8.07015 15.9996 7.87511 15.9996Z" fill="#FAFAFA"/>
</svg>
