<svg width="20" height="25" viewBox="0 0 20 25" fill="none" xmlns="http://www.w3.org/2000/svg">
<path d="M17.326 2.8365V15.1233H10.8952C10.5957 15.1233 10.3201 14.9672 10.1632 14.712L9.02724 12.8588C8.87039 12.6035 8.59472 12.4475 8.29528 12.4475H3.19531V4.51476L5.34367 2.37793H16.8697C17.1168 2.37793 17.326 2.58121 17.326 2.8365Z" fill="#EAEFFE"/>
<path d="M5.84764 10.9633H4.95883C4.69741 10.9633 4.48828 10.7505 4.48828 10.4952V6.12232C4.48828 5.86231 4.69741 5.6543 4.95883 5.6543H5.84764C5.58622 5.6543 5.37709 5.86231 5.37709 6.12232V10.4952C5.37234 10.7553 5.58147 10.9633 5.84764 10.9633Z" fill="#F3AE83"/>
<path d="M9.82465 6.1224V10.4953C9.82465 10.7506 9.61077 10.9633 9.3541 10.9633H5.84164C5.58023 10.9633 5.37109 10.7506 5.37109 10.4953V6.1224C5.37109 5.86238 5.58023 5.65437 5.84164 5.65437H9.3541C9.61552 5.64965 9.82465 5.86238 9.82465 6.1224Z" fill="#F6C9AF"/>
<path d="M3.19531 4.51476L5.33891 2.37793V4.05619C5.33891 4.31147 5.12978 4.51476 4.87787 4.51476H3.19531Z" fill="#D5DCF8"/>
<path d="M4.56483 24.9609H1.67976C1.20446 24.9609 0.824219 24.578 0.824219 24.11V13.2982C0.824219 12.8255 1.20446 12.4473 1.67976 12.4473H4.56483C4.08953 12.4473 3.70929 12.8255 3.70929 13.2982V24.11C3.70929 24.578 4.08953 24.9609 4.56483 24.9609Z" fill="#66AFF1"/>
<path d="M19.9995 15.974V24.11C19.9995 24.578 19.6192 24.9609 19.1439 24.9609H4.56648C4.09118 24.9609 3.71094 24.578 3.71094 24.11V13.2982C3.71094 12.8255 4.09118 12.4473 4.56648 12.4473H8.29758C8.59702 12.4473 8.87269 12.5985 9.02954 12.8586L10.1655 14.7117C10.3224 14.9623 10.598 15.123 10.8975 15.123H19.1487C19.6192 15.1183 19.9995 15.5012 19.9995 15.974Z" fill="#86C1F4"/>
<path d="M1.96409 12.4428H1.68366C1.20836 12.4428 0.828125 12.821 0.828125 13.2937V11.6107C0.828125 11.1521 1.19411 10.7787 1.65039 10.7598L1.96409 12.4428ZM19.997 11.6154V15.9742C19.997 15.5014 19.6167 15.1232 19.1414 15.1232H17.321V13.6672L18.2574 10.7645H19.1414C19.6167 10.7645 19.997 11.1474 19.997 11.6154Z" fill="#4C9CED"/>
<path d="M13.1557 4.72278H13.7498V4.13184C13.7498 3.90492 13.9352 3.71582 14.1681 3.71582C14.401 3.71582 14.5863 3.90019 14.5863 4.13184V4.72278H15.1805C15.4086 4.72278 15.5987 4.90715 15.5987 5.1388C15.5987 5.37044 15.4134 5.55482 15.1805 5.55482H14.5863V6.14575C14.5863 6.37267 14.401 6.56177 14.1681 6.56177C13.9352 6.56177 13.7498 6.3774 13.7498 6.14575V5.55482H13.1557C12.6044 5.54063 12.6044 4.73223 13.1557 4.72278Z" fill="#F44A7E"/>
<path d="M8.62398 19.4301H9.57933V18.4799C9.57933 18.1112 9.87877 17.8086 10.2543 17.8086C10.6297 17.8086 10.9292 18.1064 10.9292 18.4799V19.4301H11.8845C12.2553 19.4301 12.5595 19.728 12.5595 20.1014C12.5595 20.4749 12.26 20.7727 11.8845 20.7727H10.9292V21.723C10.9292 22.0917 10.6297 22.3943 10.2543 22.3943C9.87877 22.3943 9.57933 22.0964 9.57933 21.723V20.7727H8.62398C7.73992 20.7444 7.73992 19.449 8.62398 19.4301Z" fill="#EAEFFE"/>
<path d="M8.36543 9.11911V10.0741H5.94141V9.11911C5.94141 8.66999 6.20757 8.28234 6.59257 8.10742C6.89201 8.37216 7.41484 8.37216 7.71903 8.10742C8.09927 8.28234 8.36543 8.66999 8.36543 9.11911Z" fill="#44569B"/>
<path d="M8.0424 7.42203C8.01388 8.58499 6.29805 8.58499 6.26953 7.42203C6.29805 6.25906 8.01388 6.25906 8.0424 7.42203Z" fill="#6A88C8"/>
<path d="M11.7979 2.37795H6.11805L6.50304 1.17244C6.57909 0.931341 6.8405 0.794244 7.0829 0.874611L11.7979 2.37795ZM19.9635 5.46028C19.3599 7.33237 17.9055 11.8424 17.3209 13.6625V4.13658L19.6688 4.88353C19.9112 4.96389 20.0396 5.21918 19.9635 5.46028ZM3.1902 5.53119V12.4475H1.96393C1.7548 11.346 1.05135 7.5782 0.832714 6.41523C0.785184 6.17413 0.942033 5.94721 1.17968 5.90466L3.1902 5.53119Z" fill="#C0C8F3"/>
<path d="M12.2561 6.79768H11.0013C10.6686 6.79768 10.6639 6.28711 11.0013 6.28711H12.2561C12.5936 6.28711 12.5936 6.79295 12.2561 6.79768ZM15.588 8.35302H11.0013C10.6686 8.35302 10.6639 7.84245 11.0013 7.84245H15.588C15.9207 7.84245 15.9254 8.3483 15.588 8.35302ZM15.588 9.86109H11.0013C10.6686 9.86109 10.6639 9.35053 11.0013 9.35053H15.588C15.9207 9.35053 15.9254 9.85637 15.588 9.86109ZM15.588 11.4448H11.0013C10.6686 11.4448 10.6639 10.9342 11.0013 10.9342H15.588C15.9207 10.939 15.9254 11.4448 15.588 11.4448ZM15.588 13.0332H11.0013C10.6686 13.0332 10.6639 12.5227 11.0013 12.5227H15.588C15.9207 12.5274 15.9254 13.0332 15.588 13.0332Z" fill="#44569B"/>
</svg>
