<svg width="8" height="8" viewBox="0 0 8 8" fill="none" xmlns="http://www.w3.org/2000/svg">
<path fill-rule="evenodd" clip-rule="evenodd" d="M0.787037 5.66409L2.30072 4.78712C2.58481 4.62253 2.87367 4.50584 3.18592 4.60713C3.53405 4.72002 4.10252 4.96244 4.68227 5.06701C4.89746 5.13678 5.03162 5.35224 4.97308 5.57072C4.91453 5.78924 4.72988 5.90189 4.46937 5.86159L4.67202 5.89403C4.90426 5.93117 5.11752 5.89939 5.32079 5.78102L6.77611 4.93337C7.90737 4.27452 8.07354 5.28812 7.69741 5.51969L5.05632 7.14594C4.81341 7.29549 4.54763 7.33038 4.27208 7.25652L2.35645 6.74324L1.64702 7.15284C1.51062 7.23159 1.33513 7.18456 1.25638 7.04818L0.682713 6.05453C0.604043 5.91824 0.650877 5.74297 0.787037 5.66409Z" fill="#F6DCCD"/>
<path fill-rule="evenodd" clip-rule="evenodd" d="M0.787032 5.66409L2.30071 4.78712C2.5848 4.62253 2.87367 4.50584 3.18591 4.60713C3.37215 4.66752 3.6215 4.76498 3.90188 4.8586L0.969655 6.55152L0.682724 6.05452C0.604038 5.91824 0.650872 5.74297 0.787032 5.66409Z" fill="#F1CBBC"/>
<path fill-rule="evenodd" clip-rule="evenodd" d="M0.937817 5.1867L2.13828 7.30784C2.19632 7.4104 2.1599 7.5418 2.05734 7.59985L1.649 7.83094C1.54644 7.889 1.41502 7.85256 1.35698 7.75001L0.156535 5.62886C0.0984967 5.52629 0.134918 5.3949 0.237482 5.33684L0.645801 5.10575C0.748365 5.04772 0.879779 5.08414 0.937817 5.1867Z" fill="#D1D1D6"/>
<path fill-rule="evenodd" clip-rule="evenodd" d="M1.56847 6.64403L1.78095 7.01946L1.99106 7.39072C2.04899 7.49307 2.01284 7.62415 1.91075 7.68238L2.05661 7.59983C2.15917 7.54179 2.19559 7.41038 2.13754 7.30782L1.92671 6.9353L1.50338 6.18733L1.07958 5.4385L0.937057 5.18668C0.886784 5.09784 0.781427 5.05864 0.6875 5.08747L0.934248 5.52346L1.35758 6.27146L1.56841 6.64397L1.56847 6.64403Z" fill="#B1B1B5"/>
<path fill-rule="evenodd" clip-rule="evenodd" d="M7.54519 3.01736C7.72937 3.01734 7.88007 2.86667 7.88007 2.68248V2.43662C7.88007 2.25243 7.72937 2.10174 7.54519 2.10174C7.72938 2.10174 7.88007 1.95105 7.88007 1.76686V1.521C7.88007 1.33682 7.72937 1.18613 7.54519 1.18613C7.72938 1.18613 7.88007 1.03544 7.88007 0.851247V0.605387C7.88007 0.421198 7.72937 0.270508 7.54519 0.270508H5.44035C5.25617 0.270508 5.10547 0.421198 5.10547 0.605387V0.851247C5.10547 1.03544 5.25617 1.18613 5.44035 1.18613C5.25617 1.18613 5.10547 1.33682 5.10547 1.521V1.76686C5.10547 1.95105 5.25617 2.10174 5.44035 2.10174C5.25617 2.10174 5.10547 2.25243 5.10547 2.43662V2.68248C5.10547 2.86667 5.25617 3.01734 5.44036 3.01736C5.25617 3.01736 5.10547 3.16805 5.10547 3.35224V3.5981C5.10547 3.7823 5.25617 3.93298 5.44036 3.93298H7.54519C7.72937 3.93298 7.88007 3.78229 7.88007 3.5981V3.35224C7.88007 3.16805 7.72937 3.01736 7.54519 3.01736Z" fill="#FFE177"/>
<path fill-rule="evenodd" clip-rule="evenodd" d="M5.44035 3.01718H7.54518C7.72937 3.01718 7.88006 2.86649 7.88006 2.6823V2.43644C7.88006 2.25225 7.72935 2.10156 7.54518 2.10156H5.44035C5.25616 2.10156 5.10547 2.25225 5.10547 2.43644V2.6823C5.10547 2.86649 5.25616 3.01718 5.44035 3.01718Z" fill="#FFD064"/>
<path fill-rule="evenodd" clip-rule="evenodd" d="M7.54296 1.01716H7.23047C7.41466 1.01716 7.56535 0.866474 7.56535 0.682301V0.436441C7.56535 0.252252 7.41464 0.101562 7.23047 0.101562H7.54296C7.72713 0.101562 7.87783 0.252252 7.87783 0.436441V0.682301C7.87783 0.866474 7.72713 1.01716 7.54296 1.01716Z" fill="#FFC338"/>
<path fill-rule="evenodd" clip-rule="evenodd" d="M5.44035 1.18613H7.54518C7.72937 1.18613 7.88006 1.03544 7.88006 0.851247V0.605387C7.88006 0.421198 7.72935 0.270508 7.54518 0.270508H5.44035C5.25616 0.270508 5.10547 0.421198 5.10547 0.605387V0.851247C5.10547 1.03544 5.25616 1.18613 5.44035 1.18613Z" fill="#FFD064"/>
<path d="M6.29355 4.28144C6.83516 3.73984 6.83516 2.86172 6.29355 2.32012C5.75195 1.77851 4.87383 1.77851 4.33223 2.32012C3.79062 2.86172 3.79062 3.73984 4.33223 4.28144C4.87383 4.82305 5.75195 4.82305 6.29355 4.28144Z" fill="#FFC338"/>
<path fill-rule="evenodd" clip-rule="evenodd" d="M5.31404 1.91406C6.07998 1.91406 6.7009 2.53498 6.7009 3.30093C6.7009 4.06687 6.07998 4.6878 5.31404 4.6878C5.27441 4.68777 5.2348 4.68606 5.19531 4.68268C5.90566 4.62243 6.46344 4.02687 6.46344 3.30093C6.46344 2.57499 5.90566 1.97941 5.19531 1.91918C5.2348 1.9158 5.27441 1.91409 5.31404 1.91406Z" fill="#F5B829"/>
<path fill-rule="evenodd" clip-rule="evenodd" d="M3.49229 1.12605V2.75566C3.49229 2.78233 3.47052 2.80409 3.44385 2.80409H3.01776C2.99109 2.80409 2.96933 2.78233 2.96933 2.75566V1.12605C2.96933 1.09938 2.94756 1.07762 2.92089 1.07762H2.68143C2.67266 1.07773 2.66402 1.07542 2.65649 1.07092C2.64896 1.06642 2.64283 1.05992 2.63877 1.05214C2.63451 1.04447 2.63247 1.03577 2.63286 1.02701C2.63325 1.01825 2.63607 1.00977 2.641 1.00251L3.19039 0.170184C3.19962 0.156187 3.21404 0.148438 3.23081 0.148438C3.24759 0.148438 3.262 0.156187 3.27122 0.170184L3.82061 1.00251C3.83068 1.01779 3.83151 1.03605 3.82284 1.05214C3.81878 1.05992 3.81265 1.06642 3.80512 1.07092C3.79759 1.07542 3.78896 1.07774 3.78018 1.07762H3.54072C3.51403 1.07762 3.49229 1.09938 3.49229 1.12605Z" fill="#8AC9FE"/>
<path fill-rule="evenodd" clip-rule="evenodd" d="M3.49161 1.12607V2.75568C3.49161 2.78235 3.46985 2.80411 3.44318 2.80411H3.33449C3.36117 2.80411 3.38293 2.78235 3.38293 2.75568V1.12607C3.38293 1.09939 3.40469 1.07763 3.43136 1.07763H3.54004C3.51336 1.07763 3.49161 1.09939 3.49161 1.12607ZM3.17578 0.191284L3.71125 1.00251C3.72133 1.01779 3.72215 1.03605 3.71348 1.05214C3.70943 1.05992 3.70329 1.06642 3.69576 1.07092C3.68823 1.07542 3.6796 1.07774 3.67083 1.07762H3.77951C3.78828 1.07773 3.79691 1.07541 3.80444 1.07092C3.81197 1.06642 3.81811 1.05992 3.82216 1.05214C3.82642 1.04447 3.82847 1.03577 3.82808 1.02701C3.82768 1.01825 3.82486 1.00977 3.81993 1.00251L3.27055 0.170184C3.26131 0.156187 3.2469 0.148438 3.23014 0.148438C3.21338 0.148438 3.19895 0.156187 3.18971 0.170184L3.17578 0.191284Z" fill="#60B7FF"/>
<path fill-rule="evenodd" clip-rule="evenodd" d="M3.22987 0.363599L3.6288 0.968619H3.49127C3.4743 0.968611 3.4575 0.971946 3.44182 0.978435C3.42615 0.984925 3.4119 0.99444 3.39991 1.00644C3.38791 1.01844 3.37839 1.03268 3.3719 1.04836C3.36541 1.06403 3.36208 1.08084 3.36209 1.0978V2.69516H3.09689V1.0978C3.09689 1.08084 3.09356 1.06403 3.08707 1.04836C3.08058 1.03268 3.07106 1.01844 3.05907 1.00644C3.04707 0.99444 3.03282 0.984925 3.01715 0.978435C3.00147 0.971946 2.98467 0.968611 2.9677 0.968619H2.83017L3.22987 0.363599ZM2.59004 1.22699H2.83929V2.82426C2.83929 2.89562 2.89704 2.95345 2.96772 2.95345H3.49129C3.50826 2.95346 3.52506 2.95012 3.54073 2.94363C3.55641 2.93714 3.57065 2.92762 3.58265 2.91563C3.59465 2.90363 3.60416 2.88939 3.61065 2.87371C3.61714 2.85803 3.62048 2.84123 3.62047 2.82426V1.22699H3.86895C3.91606 1.22699 3.96013 1.20085 3.98293 1.15906C3.99376 1.13844 3.99891 1.11531 3.99784 1.09205C3.99677 1.06878 3.98952 1.04622 3.97684 1.02669L3.33701 0.0579738C3.31346 0.0218108 3.27318 0 3.22987 0C3.18655 0 3.14551 0.0218108 3.12196 0.0579738L2.48213 1.02669C2.46939 1.04622 2.46217 1.06884 2.46123 1.09214C2.46029 1.11544 2.46567 1.13856 2.4768 1.15906C2.49886 1.20085 2.54293 1.22699 2.59004 1.22699ZM5.88341 3.63044C5.89784 3.74891 5.86592 3.85719 5.79071 3.94375C5.71168 4.03493 5.58555 4.09838 5.44115 4.12202V4.19914C5.44115 4.27049 5.3834 4.32824 5.31273 4.32824C5.29576 4.32826 5.27896 4.32493 5.26329 4.31845C5.24761 4.31197 5.23337 4.30246 5.22137 4.29047C5.20937 4.27848 5.19985 4.26424 5.19336 4.24857C5.18687 4.2329 5.18353 4.2161 5.18354 4.19914V4.11995C4.96241 4.07785 4.79296 3.93105 4.74204 3.72564C4.72456 3.65642 4.76712 3.58635 4.83626 3.56911C4.90541 3.55187 4.97533 3.59396 4.99279 3.66318C5.03232 3.82353 5.19797 3.87656 5.32714 3.87375C5.44036 3.87109 5.54599 3.83218 5.59538 3.77474C5.62273 3.74358 5.63261 3.70756 5.62654 3.66152C5.61741 3.58409 5.57106 3.48932 5.29295 3.44365C4.88716 3.37709 4.79219 3.1663 4.78458 3.00117C4.77319 2.77275 4.932 2.58163 5.17897 2.52563C5.18049 2.52532 5.182 2.52495 5.18352 2.52464V2.44334C5.18351 2.42638 5.18685 2.40957 5.19334 2.3939C5.19983 2.37822 5.20934 2.36397 5.22134 2.35198C5.23334 2.33998 5.24758 2.33046 5.26326 2.32397C5.27894 2.31748 5.29574 2.31415 5.31271 2.31416C5.38339 2.31416 5.44114 2.37199 5.44114 2.44334V2.52351C5.60376 2.55703 5.75953 2.65801 5.84007 2.84982C5.86742 2.91554 5.83628 2.99131 5.77091 3.0189C5.73928 3.03215 5.70367 3.03233 5.67191 3.01938C5.64015 3.00643 5.61481 2.98141 5.60146 2.94982C5.53384 2.7888 5.36894 2.74731 5.23596 2.77756C5.13869 2.79968 5.03687 2.86669 5.04295 2.98866C5.04447 3.0306 5.0498 3.14208 5.33475 3.18882C5.66987 3.2438 5.85452 3.39236 5.88341 3.63044ZM5.43886 1.07706C5.32488 1.07706 5.23292 0.984812 5.23292 0.87135V0.625458C5.23292 0.512013 5.32487 0.419765 5.43886 0.419765H7.54376C7.65697 0.419765 7.74893 0.512013 7.74893 0.625458V0.87135C7.74893 0.984796 7.65699 1.07706 7.54376 1.07706H5.43886ZM7.74893 1.54112V1.78695C7.74893 1.9004 7.65699 1.99273 7.54376 1.99273H6.04297C5.8264 1.87297 5.57717 1.80473 5.31273 1.80473C5.28614 1.80473 5.26029 1.80542 5.23446 1.80678C5.2337 1.80016 5.23294 1.79364 5.23294 1.78694V1.54111C5.23294 1.42766 5.32488 1.33533 5.43888 1.33533H7.54377C7.65697 1.33535 7.74893 1.42768 7.74893 1.54112ZM7.74893 2.45671V2.7026C7.74893 2.81598 7.65699 2.9083 7.54376 2.9083H6.77171C6.70109 2.6599 6.56821 2.43365 6.38568 2.25098H7.54376C7.65697 2.25102 7.74893 2.34326 7.74893 2.45671ZM7.74893 3.3723V3.6182C7.74893 3.73165 7.65699 3.82391 7.54376 3.82391H6.74284C6.79977 3.66244 6.82881 3.49246 6.82871 3.32125C6.82871 3.26904 6.82644 3.21744 6.82111 3.1666H7.54376C7.65697 3.1666 7.74893 3.25893 7.74893 3.3723ZM5.31273 4.57938C6.00575 4.57938 6.57034 4.01501 6.57034 3.32123C6.57034 2.62745 6.00575 2.063 5.31273 2.063C4.61894 2.063 4.05435 2.62745 4.05435 3.32123C4.05435 4.01501 4.61894 4.57938 5.31273 4.57938ZM8.00729 0.87135C8.00729 1.00289 7.95257 1.12173 7.86443 1.20623C7.95257 1.29073 8.00729 1.40957 8.00729 1.54111V1.78694C8.00729 1.91848 7.95257 2.03732 7.86443 2.12181C7.95257 2.20639 8.00729 2.32517 8.00729 2.45669V2.70259C8.00729 2.83413 7.95257 2.95289 7.86443 3.0374C7.95257 3.12198 8.00729 3.24082 8.00729 3.37228V3.61819C8.00729 3.87404 7.79908 4.08225 7.54376 4.08225H6.62354C6.36061 4.53363 5.87125 4.83774 5.31273 4.83774C4.47608 4.83774 3.79599 4.1574 3.79599 3.32123C3.79599 2.59994 4.30208 1.9947 4.97838 1.84196C4.97597 1.82371 4.97471 1.80534 4.97458 1.78694V1.54111C4.97458 1.40957 5.03006 1.29073 5.1182 1.20623C5.03006 1.12173 4.97458 1.00288 4.97458 0.87135V0.625458C4.97458 0.369605 5.1828 0.161393 5.43888 0.161393H7.54377C7.79909 0.161393 8.0073 0.369605 8.0073 0.625458V0.87135H8.00729ZM0.827869 5.6474C0.840025 5.72696 0.784554 5.80104 0.704769 5.81267C0.625743 5.82429 0.55127 5.76905 0.539872 5.68949C0.527716 5.60977 0.583187 5.53584 0.662972 5.5242C0.681895 5.52141 0.701185 5.52238 0.719731 5.52707C0.738277 5.53176 0.755713 5.54006 0.771037 5.55151C0.786362 5.56296 0.799272 5.57733 0.809025 5.59378C0.818778 5.61024 0.825182 5.62846 0.827869 5.6474ZM7.62963 5.43037C7.74969 5.35643 7.78768 5.13881 7.7041 4.99937C7.58252 4.79671 7.26033 4.82164 6.84087 5.06571L5.38568 5.91344C5.16228 6.04338 4.92215 6.08571 4.65162 6.04224L4.47077 6.0129C4.46926 6.01276 4.4685 6.01253 4.46774 6.01237L4.46546 6.01192C4.23901 5.96571 4.02928 5.90584 3.80739 5.84239C3.70633 5.81351 3.60146 5.78366 3.49508 5.75508C3.42594 5.73653 3.3849 5.66579 3.4039 5.59687C3.42214 5.52795 3.49281 5.48705 3.56195 5.50544C3.67062 5.5347 3.77623 5.56487 3.87807 5.5939C4.09389 5.6556 4.29753 5.71374 4.51181 5.75781C4.63795 5.77232 4.79677 5.74861 4.84845 5.55811C4.8872 5.41311 4.8021 5.26623 4.65012 5.21312C4.21318 5.13334 3.79296 4.98127 3.45406 4.85887C3.33627 4.81609 3.23445 4.77931 3.14554 4.75059C2.87046 4.6613 2.60754 4.779 2.36513 4.91959L1.28 5.54779L2.00037 6.82045L2.2914 6.65221C2.32109 6.63514 2.35633 6.63049 2.38943 6.6393L4.3051 7.15268C4.54902 7.21803 4.77927 7.18573 4.98824 7.05693L7.62963 5.43037ZM2.03381 7.45571C2.04065 7.43375 2.0376 7.4108 2.0262 7.39112L0.825592 5.26974C0.814953 5.2502 0.79671 5.236 0.77469 5.22993C0.767007 5.22785 0.759093 5.22675 0.751135 5.22667C0.736486 5.22668 0.722089 5.23048 0.709338 5.23769L0.301277 5.4687C0.281517 5.47979 0.267843 5.49811 0.261772 5.52021C0.255686 5.54233 0.257962 5.56519 0.26936 5.58473L1.46999 7.70611C1.49278 7.7463 1.54598 7.76096 1.5855 7.73839L1.99432 7.50724C2.01405 7.49605 2.02774 7.47783 2.03381 7.45571ZM6.71092 4.84245C7.53693 4.36168 7.84924 4.7394 7.92523 4.86646C8.08252 5.12846 8.00577 5.50226 7.7649 5.65043L5.12352 7.27683C4.94267 7.38853 4.74965 7.44454 4.54828 7.44454C4.44722 7.44454 4.34388 7.43033 4.23825 7.40229L2.37424 6.90274L2.12728 7.04515L2.25114 7.26392C2.29597 7.34348 2.30737 7.43619 2.28306 7.52479C2.25874 7.61325 2.201 7.68688 2.1212 7.73194L1.71314 7.96309C1.66169 7.99225 1.60358 8.00759 1.54444 8.00762C1.51404 8.00762 1.48289 8.00343 1.4525 7.99493C1.3636 7.97037 1.28988 7.91307 1.24505 7.83329L0.0444232 5.71199C-0.000409191 5.63235 -0.011807 5.53972 0.0125062 5.4512C0.0368193 5.3626 0.0945671 5.28897 0.174368 5.24399L0.582428 5.01275C0.621619 4.9905 0.664833 4.97623 0.709573 4.97078C0.754312 4.96533 0.799688 4.9688 0.843076 4.981C0.931982 5.00555 1.0057 5.063 1.05053 5.14255L1.15235 5.32295L2.23519 4.69604C2.51558 4.53372 2.85298 4.38404 3.22533 4.50492C3.31803 4.53494 3.4267 4.57429 3.54221 4.61595C3.87352 4.73593 4.28689 4.88525 4.70483 4.96063C4.7109 4.96161 4.71623 4.96306 4.72154 4.96481C5.00726 5.05736 5.17216 5.34726 5.09768 5.62499C5.08249 5.68259 5.05968 5.73458 5.03082 5.78062C5.10832 5.76268 5.1828 5.73259 5.25575 5.6902L6.71092 4.84245Z" fill="#242222"/>
</svg>
