<svg width="19" height="21" viewBox="0 0 19 21" fill="none" xmlns="http://www.w3.org/2000/svg">
<path d="M4.00985 3.86311C2.94308 3.86311 2.0783 2.99832 2.0783 1.93155C2.0783 0.864786 2.94308 0 4.00985 0C5.07662 0 5.94141 0.864786 5.94141 1.93155C5.94141 2.99832 5.07662 3.86311 4.00985 3.86311Z" fill="#6BD9E7"/>
<path d="M2.08154 1.93209C2.08154 2.99853 2.94658 3.86352 4.01298 3.86352C4.53887 3.86352 5.01531 3.65375 5.36328 3.31294C5.1673 3.37775 4.96218 3.41069 4.75576 3.41051C3.68892 3.41051 2.82429 2.54592 2.82429 1.47907C2.82429 0.937684 3.04704 0.448675 3.40546 0.0986328C2.63632 0.352329 2.08154 1.07751 2.08154 1.93209Z" fill="#2ED1E2"/>
<path d="M3.2702 5.01562H4.75866C6.50749 5.01562 7.93551 6.38903 8.02307 8.11606C8.02591 8.17208 8.02733 8.22817 8.02734 8.28427V11.1795C8.02734 11.5527 7.80045 11.8729 7.47705 12.0097C7.3055 12.0822 7.11567 12.0996 6.93382 12.0594C6.91209 12.0546 6.89052 12.0491 6.86912 12.043V19.8535C6.86912 20.3885 6.43542 20.8222 5.90037 20.8222C5.36537 20.8222 4.93163 20.3885 4.93163 19.8535V15.2995C4.93163 14.7929 4.52099 14.3822 4.01441 14.3822C3.50787 14.3822 3.09719 14.7929 3.09719 15.2995V19.8535C3.09719 20.3885 2.66349 20.8222 2.12845 20.8222C1.59344 20.8222 1.1597 20.3885 1.1597 19.8535C1.1597 19.8535 1.1597 12.043 1.15905 12.0429C1.01821 12.0831 0.865051 12.0917 0.720919 12.0622C0.310361 11.9782 0.00151825 11.6149 0.00151825 11.1795V8.28427C0.0015583 6.47903 1.46497 5.01562 3.2702 5.01562Z" fill="#6BD9E7"/>
<path d="M-0.0013628 8.28447V11.1802C-0.0013628 11.6152 0.307644 11.9786 0.717958 12.0628C0.77774 12.0751 0.838628 12.0813 0.899668 12.0812C0.986335 12.0812 1.07341 12.0657 1.15674 12.0435V19.8539C1.15674 20.1218 1.26561 20.3634 1.44102 20.5393C1.5309 20.6291 1.63763 20.7004 1.7551 20.749C1.87256 20.7976 1.99846 20.8225 2.12557 20.8223C2.27881 20.8223 2.42408 20.7867 2.55264 20.7235C2.45689 20.6769 2.36959 20.6146 2.2943 20.5393C2.1189 20.3635 2.01047 20.1219 2.01043 19.854V12.1398C2.01043 11.9394 1.9844 11.6928 1.84849 11.5338C1.75161 11.4204 1.54444 11.3604 1.40153 11.3696C1.25549 11.3791 1.10017 11.4064 0.978567 11.3031C0.822844 11.1708 0.852329 10.9412 0.852329 10.7549V8.28439C0.852329 6.47899 2.31566 5.01562 4.12109 5.01562H3.26736C1.46196 5.01571 -0.0013628 6.47903 -0.0013628 8.28447Z" fill="#2ED1E2"/>
<path d="M13.6153 3.86311C12.5486 3.86311 11.6838 2.99832 11.6838 1.93155C11.6838 0.864786 12.5486 0 13.6153 0C14.6821 0 15.5469 0.864786 15.5469 1.93155C15.5469 2.99832 14.6821 3.86311 13.6153 3.86311Z" fill="#FE93BB"/>
<path d="M9.02357 15.1874L10.7637 11.658C10.4547 11.529 10.2374 11.2241 10.2374 10.8684V8.11927C10.2374 6.40518 11.627 5.01562 13.341 5.01562H13.8912C15.6053 5.01562 16.9948 6.40518 16.9948 8.11927V10.8684C16.9948 11.2241 16.7775 11.529 16.4685 11.658L18.2086 15.1874C18.4489 15.6746 18.0943 16.2448 17.5511 16.2448H15.5919V19.8153C15.5919 20.3609 15.1496 20.8032 14.604 20.8032C14.0584 20.8032 13.6161 20.3609 13.6161 19.8153C13.6161 20.3609 13.1738 20.8032 12.6282 20.8032C12.0826 20.8032 11.6403 20.3609 11.6403 19.8153V16.2448H9.68112C9.1379 16.2448 8.7833 15.6746 9.02357 15.1874Z" fill="#FE93BB"/>
<path d="M11.6831 1.93209C11.6831 2.99853 12.5481 3.86352 13.6145 3.86352C14.1404 3.86352 14.6169 3.65375 14.9648 3.31294C14.7689 3.37775 14.5637 3.41069 14.3573 3.41051C13.2905 3.41051 12.4259 2.54592 12.4259 1.47908C12.4259 0.937684 12.6486 0.448675 13.007 0.0986328C12.2379 0.352329 11.6831 1.07751 11.6831 1.93209ZM9.67957 16.2455H10.5422C9.9987 16.2455 9.64406 15.6752 9.88397 15.1879L11.4735 11.9653C11.5509 11.8083 11.5105 11.6214 11.3806 11.5039C11.2074 11.3473 11.0986 11.1211 11.0986 10.869V8.11905C11.0986 6.4564 12.4062 5.09943 14.0492 5.01988C13.9962 5.01735 13.9431 5.01609 13.8901 5.01609H13.3395C11.6256 5.01609 10.2361 6.40552 10.2361 8.11946V10.869C10.2361 11.2249 10.453 11.5293 10.762 11.6591L9.0219 15.1879C8.78155 15.6752 9.13622 16.2455 9.67957 16.2455ZM11.9896 15.8023C11.7903 15.8023 11.6287 15.9639 11.6287 16.1631V19.7983C11.6287 20.0762 11.7413 20.3272 11.9233 20.5093C12.0166 20.6028 12.1275 20.677 12.2496 20.7276C12.3717 20.7781 12.5026 20.804 12.6347 20.8038C12.7617 20.8038 12.8837 20.7804 12.9953 20.7369C12.8639 20.6864 12.7445 20.6089 12.6449 20.5093C12.4629 20.3272 12.3504 20.0762 12.3504 19.7983V16.1631C12.3504 15.9639 12.1888 15.8023 11.9896 15.8023ZM13.5957 16.1631V19.7741C13.5957 20.3302 14.0369 20.7994 14.593 20.8038C14.7193 20.8051 14.8446 20.7824 14.9624 20.7369C14.5851 20.592 14.3174 20.2267 14.3174 19.7983V16.1631C14.3174 15.9639 14.1559 15.8023 13.9566 15.8023C13.9092 15.8023 13.8623 15.8116 13.8185 15.8298C13.7747 15.8479 13.735 15.8745 13.7014 15.908C13.6679 15.9415 13.6414 15.9813 13.6232 16.025C13.6051 16.0688 13.5957 16.1157 13.5957 16.1631Z" fill="#FE76A8"/>
<path d="M15.3924 7.88636V10.8852C15.3924 11.3289 15.7553 11.7099 16.199 11.7084C16.3408 11.7079 16.4637 11.6757 16.582 11.6025C16.3365 11.4652 16.1769 11.206 16.1769 10.9042V7.8864C16.1769 7.78236 16.1356 7.68259 16.062 7.60903C15.9885 7.53547 15.8887 7.49414 15.7847 7.49414C15.568 7.4941 15.3924 7.66971 15.3924 7.88636ZM11.8492 7.88636V10.8852C11.8492 10.9614 11.8382 11.0375 11.8175 11.1109C11.7761 11.2564 11.6978 11.3887 11.5901 11.4948C11.5374 11.5467 11.4778 11.5909 11.4129 11.6262C11.3482 11.6614 11.2783 11.6863 11.2059 11.7C11.1772 11.7053 11.1482 11.7088 11.1191 11.7103C11.0926 11.712 11.066 11.7125 11.0395 11.7119C10.9844 11.7103 10.9296 11.7049 10.8753 11.6957C10.7945 11.682 10.7217 11.6462 10.6531 11.602C10.8986 11.4647 11.0647 11.206 11.0647 10.9042V7.8864C11.0647 7.78236 11.106 7.68259 11.1795 7.60903C11.2531 7.53547 11.3529 7.49414 11.4569 7.49414C11.6736 7.4941 11.8492 7.66971 11.8492 7.88636Z" fill="#FE5694"/>
<path d="M6.25639 7.91971V11.1981C6.25639 11.6795 6.63633 12.0926 7.11769 12.091C7.27146 12.0904 7.40148 12.0466 7.54688 11.9762C7.28057 11.8272 7.1074 11.546 7.1074 11.2187V7.91966C7.1074 7.68468 6.91691 7.49414 6.68188 7.49414C6.44689 7.49418 6.25639 7.68468 6.25639 7.91971ZM1.7826 7.91971V11.1981C1.7826 11.2808 1.77076 11.3634 1.74823 11.4429C1.72579 11.522 1.69315 11.5978 1.65115 11.6685C1.60974 11.7383 1.55943 11.8025 1.50149 11.8594C1.44438 11.9156 1.3797 11.9636 1.30933 12.0019C1.23909 12.0401 1.16334 12.0671 1.08479 12.0819C1.02472 12.0931 0.96335 12.0982 0.902265 12.0958C0.785788 12.0912 0.667562 12.0705 0.561456 12.02C0.533964 12.0069 0.506958 11.9928 0.479994 11.9786C0.746298 11.8297 0.931547 11.5462 0.931547 11.2188V7.91979C0.931547 7.6848 1.12204 7.49426 1.35707 7.49426C1.5921 7.49418 1.7826 7.68468 1.7826 7.91971Z" fill="#1CC1C9"/>
</svg>
