<svg width="19" height="22" viewBox="0 0 19 22" fill="none" xmlns="http://www.w3.org/2000/svg">
<path d="M9.5 22C9.42942 22 9.3588 21.99 9.29068 21.9701C6.57701 21.1755 4.25354 19.6306 2.5713 17.5024C0.889154 15.3741 0 12.8545 0 10.2159V3.65234C0 3.29639 0.311229 3.00781 0.695122 3.00781C2.70287 3.00781 4.52826 1.98705 5.46301 0.343836C5.52204 0.24007 5.61049 0.15321 5.71883 0.0926189C5.82718 0.032028 5.9513 4.3352e-06 6.07782 2.84667e-10L12.9221 2.84666e-10C13.0487 -3.48607e-06 13.1728 0.0320165 13.2811 0.0926078C13.3895 0.153199 13.478 0.240063 13.537 0.343836C14.4717 1.98705 16.2971 3.00781 18.3007 3.00781C18.6846 3.00781 19 3.29639 19 3.65234V10.2159C19 12.8545 18.1108 15.3741 16.4287 17.5023C14.7465 19.6306 12.423 21.1755 9.70932 21.9701C9.6412 21.99 9.57058 22 9.5 22Z" fill="#9DDFF6"/>
<path d="M18.3007 3.00781C16.2971 3.00781 14.4717 1.98705 13.537 0.343836C13.478 0.240064 13.3895 0.153198 13.2812 0.0926065C13.1728 0.0320146 13.0487 -5.09978e-06 12.9222 6.09233e-10L9.5 6.09233e-10V22C9.57058 22 9.6412 21.99 9.70932 21.9701C12.423 21.1755 14.7465 19.6306 16.4287 17.5024C18.1108 15.3741 19 12.8545 19 10.2159V3.65234C19 3.29639 18.6846 3.00781 18.3007 3.00781Z" fill="#6BA7FF"/>
<path d="M9.46561 19.2578C9.37377 19.2578 9.28284 19.241 9.19808 19.2082C5.27861 17.6928 2.74609 14.1631 2.74609 10.2159V5.81904C2.74609 5.68331 2.7923 5.55105 2.87813 5.4411C2.96397 5.33115 3.08505 5.24913 3.22411 5.20674C4.69728 4.75842 6.00124 3.92841 6.98184 2.8148C7.04703 2.74083 7.12914 2.68123 7.22222 2.64029C7.3153 2.59936 7.41703 2.57813 7.52005 2.57812H11.4111C11.6197 2.57812 11.8174 2.66501 11.9494 2.8148C12.9299 3.92856 14.2339 4.75873 15.7071 5.20717C15.8462 5.24957 15.9672 5.33159 16.0531 5.44154C16.1389 5.55148 16.1851 5.68375 16.1851 5.81947V10.2159C16.1851 14.1631 13.6526 17.6928 9.73309 19.2082C9.64834 19.2409 9.55743 19.2578 9.46561 19.2578Z" fill="#F5F5FF"/>
<path d="M15.7415 5.20717C14.2683 4.75873 12.9644 3.92856 11.9838 2.8148C11.9186 2.74083 11.8365 2.68122 11.7434 2.64029C11.6503 2.59936 11.5485 2.57813 11.4455 2.57812H9.5V19.2578C9.59184 19.2578 9.68276 19.241 9.76753 19.2082C13.687 17.6928 16.2195 14.1631 16.2195 10.2159V5.81947C16.2195 5.68375 16.1733 5.55148 16.0875 5.44154C16.0017 5.33159 15.8806 5.24957 15.7415 5.20717Z" fill="#E2E7FA"/>
<path d="M8.42412 13.6139C8.33282 13.6141 8.24239 13.5974 8.15804 13.565C8.07369 13.5326 7.99709 13.4851 7.93263 13.4251L5.77001 11.4199C5.49854 11.1682 5.49854 10.7601 5.77001 10.5084C6.04143 10.2567 6.48158 10.2567 6.75305 10.5084L8.42417 12.0579L12.2579 8.50324C12.5293 8.25153 12.9694 8.25153 13.2409 8.50324C13.5124 8.75495 13.5124 9.16302 13.2409 9.41473L8.91571 13.4251C8.85123 13.4851 8.7746 13.5326 8.69024 13.565C8.60588 13.5974 8.51544 13.6141 8.42412 13.6139Z" fill="#6B61B1"/>
<path d="M12.2524 8.50327L9.5 11.0553V12.8783L13.2354 9.41477C13.5069 9.16305 13.5069 8.75498 13.2354 8.50327C12.964 8.25151 12.5238 8.25151 12.2524 8.50327Z" fill="#453D81"/>
</svg>
