<svg width="12" height="12" viewBox="0 0 12 12" fill="none" xmlns="http://www.w3.org/2000/svg">
<path fill-rule="evenodd" clip-rule="evenodd" d="M7.5692 6.2578H3.8034C3.74302 6.25593 3.68574 6.23063 3.64369 6.18725C3.60164 6.14388 3.57812 6.08584 3.57812 6.02543C3.57812 5.96502 3.60164 5.90699 3.64369 5.86361C3.68574 5.82024 3.74302 5.79494 3.8034 5.79307H7.5653L5.8833 4.53843C5.83391 4.50156 5.80118 4.44659 5.79229 4.3856C5.7834 4.32461 5.79908 4.26258 5.83589 4.21315C5.8728 4.1638 5.92778 4.1311 5.98876 4.12224C6.04974 4.11337 6.11175 4.12905 6.16118 4.16585L8.40451 5.83914C8.42939 5.85777 8.45003 5.88086 8.46542 5.90696L8.46598 5.90786C8.48561 5.94132 8.49721 5.98003 8.49788 6.02142V6.02677C8.49778 6.06262 8.48934 6.09795 8.47323 6.12997C8.45712 6.16199 8.43379 6.18983 8.40507 6.21128L6.17758 7.88458C6.12819 7.91984 6.06696 7.9344 6.00698 7.92513C5.94701 7.91586 5.89303 7.8835 5.85659 7.83497C5.82014 7.78644 5.80413 7.72558 5.81195 7.6654C5.81978 7.60521 5.85083 7.55048 5.89848 7.51288L7.5692 6.2578Z" fill="white" stroke="white" stroke-width="0.3"/>
<path fill-rule="evenodd" clip-rule="evenodd" d="M6.02736 11.0549C3.25259 11.0549 1 8.80234 1 6.02758C1 3.25281 3.25259 1.00011 6.02736 1.00011C8.80212 1.00011 11.0549 3.25281 11.0549 6.02746C11.0549 8.80212 8.80212 11.0549 6.02736 11.0549ZM6.02736 10.5904C8.54577 10.5904 10.5902 8.54588 10.5902 6.02758C10.5902 3.50927 8.54577 1.46473 6.02736 1.46473C3.50916 1.46473 1.46451 3.50927 1.46451 6.02758C1.46451 8.54577 3.50916 10.5904 6.02736 10.5904Z" fill="white" stroke="white" stroke-width="0.3"/>
</svg>
